<?xml version="1.0" encoding="UTF-8" standalone="no"?>
<!-- Created with Inkscape (http://www.inkscape.org/) -->

<svg
   xmlns:dc="http://purl.org/dc/elements/1.1/"
   xmlns:cc="http://creativecommons.org/ns#"
   xmlns:rdf="http://www.w3.org/1999/02/22-rdf-syntax-ns#"
   xmlns:svg="http://www.w3.org/2000/svg"
   xmlns="http://www.w3.org/2000/svg"
   xmlns:xlink="http://www.w3.org/1999/xlink"
   xmlns:sodipodi="http://sodipodi.sourceforge.net/DTD/sodipodi-0.dtd"
   xmlns:inkscape="http://www.inkscape.org/namespaces/inkscape"
   id="svg2"
   version="1.1"
   inkscape:version="0.91 r13725"
   width="331"
   height="364"
   viewBox="0 0 331 364"
   sodipodi:docname="big_g2.svg">
  <metadata
     id="metadata8">
    <rdf:RDF>
      <cc:Work
         rdf:about="">
        <dc:format>image/svg+xml</dc:format>
        <dc:type
           rdf:resource="http://purl.org/dc/dcmitype/StillImage" />
        <dc:title></dc:title>
      </cc:Work>
    </rdf:RDF>
  </metadata>
  <defs
     id="defs6" />
  <sodipodi:namedview
     pagecolor="#ffffff"
     bordercolor="#666666"
     borderopacity="1"
     objecttolerance="10"
     gridtolerance="10"
     guidetolerance="10"
     inkscape:pageopacity="0"
     inkscape:pageshadow="2"
     inkscape:window-width="1564"
     inkscape:window-height="879"
     id="namedview4"
     showgrid="false"
     inkscape:zoom="0.64835165"
     inkscape:cx="165.5"
     inkscape:cy="182"
     inkscape:window-x="36"
     inkscape:window-y="21"
     inkscape:window-maximized="1"
     inkscape:current-layer="svg2" />
  
  <path
     style="fill:green"
     d="m 266.71038,339.25 c 3.65326,-14.98313 -5.65134,-34.94904 -20.26667,-18.3238 C 198.3916,343.74785 137.29689,346.12406 92.465545,314.55432 53.509863,288.06457 32.794021,241.37334 29.920692,195.31302 25.604223,143.17236 37.540493,85.823072 76.434341,48.392346 109.77282,14.871852 161.74195,2.6690381 206.79626,16.245309 212.20332,6.6163935 225.40507,12.43284 234.70379,11 c 18.7654,0 37.53081,0 56.29621,0 0,39.666667 0,79.333333 0,119 -25.92086,0 -51.84171,0 -77.76257,0 -2.80397,-18.51579 -19.70459,-38.443241 -40.06588,-33.900291 -21.31415,8.683091 -26.12713,33.745481 -30.54086,53.783271 -5.39034,33.5106 -0.90253,71.092 21.16702,98.02289 16.12533,14.2639 42.69485,12.47647 58.17322,-1.88073 -14.93052,7.96635 -36.31812,-10.46872 -18.47385,-22.56872 14.61168,-11.93972 19.92275,-37.69334 0.33248,-47.47255 -9.82054,-11.25692 -31.86013,-13.9821 -36.37453,-27.10613 11.51693,-8.59841 28.04789,-8.09015 42.01829,-8.50274 46.36366,2.17297 89.99788,38.47249 96.25282,85.24822 7.03206,37.10644 5.82083,79.12046 -16.88411,110.85407 -4.39413,9.57361 -24.80581,27.5841 -22.34028,5.68903 l 0.20863,-2.91632 0,0 z m 12.26206,-1.88026 c 17.7539,-23.63603 19.1976,-54.755 20.01503,-83.16954 0.0143,-35.34535 -15.31274,-71.9871 -46.13897,-91.11623 -20.36578,-13.20509 -46.40356,-18.11426 -69.91714,-11.4264 12.10183,9.82503 28.86437,14.00772 37.26113,28.26708 13.41064,17.64939 0.36107,36.47878 -10.90675,50.59726 -7.42184,21.0095 30.54406,-7.81303 23.75077,13.42232 -17.30263,29.748 -66.692,29.66291 -83.54995,-0.46564 -22.99211,-35.3197 -22.27013,-81.18988 -10.20536,-120.23383 6.20027,-19.18972 22.6775,-39.073194 44.97848,-35.954093 20.09856,0.117425 27.9367,19.523323 36.87474,32.698733 16.54032,1.97648 33.48592,0.59634 50.21877,1.0106 4.29438,-1.06464 13.8735,3.15545 11.64681,-4.43026 0,-32.532356 0,-65.064713 0,-97.597069 C 261.16667,19.148447 239.33333,19.324224 217.5,19.5 211.79652,38.008575 190.25268,13.529947 176.96592,19.390404 124.75447,15.275801 73.791987,49.175157 53.856372,97.000131 31.120473,147.39889 32.007891,208.17784 56.112644,257.90062 c 20.71813,40.9154 63.213816,72.33112 110.197516,71.7382 33.57883,1.19703 68.21665,-7.52389 95.26419,-27.85301 20.99457,-4.34228 3.93746,37.24633 17.39809,35.58393 z m 0.008,-14.91974 c 5.54725,-17.5593 -12.89475,-43.29355 -27.22995,-21.53822 -36.84652,23.86009 -85.32884,29.90098 -126.59558,14.67958 C 79.347479,296.55148 51.074049,248.74059 45.928105,200.69082 37.957354,143.74149 56.177651,79.500543 104.22449,44.700863 135.5748,22.673564 179.02734,17.79049 213.37214,35.733437 c 13.10985,5.71456 8.64479,-15.599493 22.97859,-11.070195 13.04044,1.024252 26.07861,0.57117 39.14927,0.836758 0.1736,29.93879 0.34721,59.87758 0.52081,89.81637 -17.81302,-3.33242 -37.21069,3.69398 -53.95512,-5.01639 -10.16403,-26.887963 -50.3034,-39.449001 -70.76511,-16.687814 -24.7186,26.039744 -27.0789,64.860224 -24.74727,98.846964 2.42509,30.29212 15.3849,65.47012 46.48474,76.37396 24.52454,8.80443 56.37272,0.31986 67.97071,-24.34952 5.12419,-14.51286 -11.01019,-18.87434 -21.07457,-13.11158 0.4935,-11.10153 17.13656,-22.66259 12.03201,-37.7172 0.27417,-19.54803 -16.17782,-32.22373 -31.82511,-39.22596 19.18733,-1.34459 39.29064,6.40496 54.92936,17.76972 24.05898,16.51649 33.85383,45.81884 36.18341,73.70112 2.66585,27.48314 -1.50351,55.48503 -11.23773,81.27826 -2.02089,-0.65012 -0.38298,-3.55445 -1.03569,-4.72793 z"
     id="path3338"
     inkscape:connector-curvature="0" />
</svg>
